<svg xmlns="http://www.w3.org/2000/svg" viewBox="0 0 64 64" fill="none" aria-hidden="true">
  <defs>
    <linearGradient id="k8sBgGold" x1="8" y1="4" x2="56" y2="60" gradientUnits="userSpaceOnUse">
      <stop stop-color="#FFF8E1"/>
      <stop offset="0.45" stop-color="#FFE082"/>
      <stop offset="1" stop-color="#F9AB00"/>
    </linearGradient>
    <linearGradient id="k8sWheel" x1="20" y1="14" x2="46" y2="50" gradientUnits="userSpaceOnUse">
      <stop stop-color="#FFF59D"/>
      <stop offset="0.4" stop-color="#FFC107"/>
      <stop offset="1" stop-color="#FF8F00"/>
    </linearGradient>
    <radialGradient id="k8sShine" cx="0" cy="0" r="1" gradientUnits="userSpaceOnUse" gradientTransform="translate(22 18) rotate(45) scale(20)">
      <stop stop-color="#FFFFFF" stop-opacity="0.55"/>
      <stop offset="1" stop-color="#FFFFFF" stop-opacity="0"/>
    </radialGradient>
  </defs>
  <rect x="4" y="4" width="56" height="56" rx="16" fill="url(#k8sBgGold)"/>
  <rect x="4" y="4" width="56" height="56" rx="16" fill="url(#k8sShine)"/>
  <circle cx="32" cy="32" r="17" fill="url(#k8sWheel)" stroke="#E65100" stroke-width="1.5"/>
  <circle cx="32" cy="32" r="5.5" fill="#FFF8E1" stroke="#E65100" stroke-width="1.5"/>
  <g stroke="#BF360C" stroke-width="2" stroke-linecap="round">
    <path d="M32 15v6M32 43v6M15 32h6M43 32h6"/>
    <path d="M20 20l4.2 4.2M39.8 39.8l4.2 4.2M44 20l-4.2 4.2M24.2 39.8l-4.2 4.2"/>
  </g>
  <circle cx="32" cy="15" r="2.2" fill="#FF8F00" stroke="#E65100" stroke-width="1"/>
  <circle cx="32" cy="49" r="2.2" fill="#FF8F00" stroke="#E65100" stroke-width="1"/>
  <circle cx="15" cy="32" r="2.2" fill="#FF8F00" stroke="#E65100" stroke-width="1"/>
  <circle cx="49" cy="32" r="2.2" fill="#FF8F00" stroke="#E65100" stroke-width="1"/>
  <circle cx="20" cy="20" r="2.2" fill="#FF8F00" stroke="#E65100" stroke-width="1"/>
  <circle cx="44" cy="44" r="2.2" fill="#FF8F00" stroke="#E65100" stroke-width="1"/>
  <circle cx="44" cy="20" r="2.2" fill="#FF8F00" stroke="#E65100" stroke-width="1"/>
  <circle cx="20" cy="44" r="2.2" fill="#FF8F00" stroke="#E65100" stroke-width="1"/>
</svg>
